<?xml version="1.0" encoding="UTF-8" standalone="no"?>
<svg xmlns="http://www.w3.org/2000/svg" xmlns:xlink="http://www.w3.org/1999/xlink" style="isolation:isolate" viewBox="0 0 100 100" width="100pt" height="100pt">
    <defs>
        <clipPath id="_clipPath_KwOszRrSJS90u1d4USmzILOC2N4iyyHQ">
            <rect width="100" height="100" />
        </clipPath>
    </defs>
    <g clip-path="url(#_clipPath_KwOszRrSJS90u1d4USmzILOC2N4iyyHQ)">
        <g>
            <path d=" M 40.734 35.982 L 38.843 32.578 L 25.619 8.889 L 25.619 8.889 L 25.619 8.889 C 30.998 5.894 36.909 4.002 42.981 3.293 L 44.26 14.316 C 45.013 14.271 45.772 14.248 46.536 14.248 C 54.884 14.248 62.594 17.006 68.801 21.661 L 73.737 12.482 L 73.737 12.482 L 73.737 12.482 C 79.156 15.405 83.932 19.368 87.798 24.104 L 78.189 31.935 L 78.189 31.935 C 80.646 35.916 82.373 40.395 83.183 45.183 L 94.216 43.144 C 95.231 48.627 95.271 54.295 94.274 59.869 L 83.145 57.87 C 81.859 65.203 78.42 71.799 73.504 76.982 L 83.47 87.657 L 83.47 87.657 L 83.47 87.657 L 83.47 87.657 C 79.396 91.463 74.64 94.548 69.406 96.707 L 63.867 83.253 L 56.407 66.965 C 58.137 66.175 59.746 65.098 61.156 63.755 L 68.031 71.119 C 69.328 69.704 70.484 68.169 71.48 66.53 C 73.369 63.42 74.649 60.004 75.269 56.455 L 66.163 54.819 C 66.628 52.652 66.665 50.44 66.306 48.303 L 75.306 46.639 C 74.746 43.26 73.596 40.013 71.917 37.046 L 71.917 37.046 L 71.917 37.046 L 64.537 43.06 C 63.475 41.042 62.007 39.215 60.169 37.716 L 64.961 28.804 L 64.961 28.804 L 64.961 28.804 C 59.78 24.582 53.277 22.25 46.53 22.25 C 46.082 22.25 45.633 22.26 45.184 22.281 L 46.544 33.998 C 44.511 34.311 42.541 34.981 40.734 35.982 Z  M 44.356 67.867 L 38.366 95.191 C 33.139 94.048 28.022 91.98 23.252 88.934 L 38.574 64.94 C 39.174 65.401 39.812 65.828 40.485 66.217 C 41.732 66.937 43.032 67.485 44.356 67.867 Z  M 34.199 59.985 L 7.86 69.673 C 6.01 64.652 5 59.227 5 53.567 L 31.966 53.567 C 32.283 55.824 33.039 58.009 34.199 59.985 Z " fill-rule="evenodd" fill="rgb(255,161,37)" />
        </g>
        <circle vector-effect="non-scaling-stroke" cx="49.1722950613605" cy="51" r="11" fill="rgb(255,161,37)" />
    </g>
</svg>